<svg xmlns="http://www.w3.org/2000/svg" xmlns:xlink="http://www.w3.org/1999/xlink" width="500" zoomAndPan="magnify" viewBox="0 0 375 374.999991" height="500" preserveAspectRatio="xMidYMid meet" version="1.0"><defs><clipPath id="4ee7cb80ac"><path d="M 123.4375 52 L 252 52 L 252 323 L 123.4375 323 Z M 123.4375 52 " clip-rule="nonzero"/></clipPath></defs><rect x="-37.5" width="450" fill="#ffffff" y="-37.499999" height="449.999989" fill-opacity="1"/><rect x="-37.5" width="450" fill="#ffffff" y="-37.499999" height="449.999989" fill-opacity="1"/><g clip-path="url(#4ee7cb80ac)"><path fill="#5d60a6" d="M 222.003906 96.890625 L 251.5625 96.890625 L 251.5625 52.324219 L 213.820312 52.324219 L 213.820312 52.496094 C 164.195312 54.3125 153.960938 82.109375 153.109375 111.5 L 152.996094 111.5 L 152.996094 142.421875 L 123.4375 142.421875 L 123.4375 187.046875 L 152.996094 187.046875 L 152.996094 322.675781 L 206.03125 322.675781 L 206.03125 187.046875 L 244.058594 187.046875 L 251.5625 142.421875 L 206.03125 142.421875 L 206.03125 114.738281 C 206.03125 104.90625 212.625 96.890625 222.003906 96.890625 Z M 222.003906 96.890625 " fill-opacity="1" fill-rule="nonzero"/></g><path fill="#5d60a6" d="M 187.496094 0 C 84.046875 0 0 84.046875 0 187.496094 C 0 290.945312 84.046875 374.996094 187.496094 374.996094 C 290.945312 374.996094 374.996094 290.945312 374.996094 187.496094 C 374.996094 84.046875 290.945312 0 187.496094 0 Z M 187.496094 8.152344 C 286.652344 8.152344 366.84375 88.34375 366.84375 187.496094 C 366.84375 286.652344 286.652344 366.84375 187.496094 366.84375 C 88.34375 366.84375 8.152344 286.652344 8.152344 187.496094 C 8.152344 88.34375 88.34375 8.152344 187.496094 8.152344 Z M 187.496094 8.152344 " fill-opacity="1" fill-rule="nonzero"/></svg>