<svg xmlns="http://www.w3.org/2000/svg" xmlns:xlink="http://www.w3.org/1999/xlink" width="500" zoomAndPan="magnify" viewBox="0 0 375 374.999991" height="500" preserveAspectRatio="xMidYMid meet" version="1.0"><defs><clipPath id="cf5c4dd625"><path d="M 81.171875 81.171875 L 294 81.171875 L 294 294 L 81.171875 294 Z M 81.171875 81.171875 " clip-rule="nonzero"/></clipPath></defs><rect x="-37.5" width="450" fill="#ffffff" y="-37.499999" height="449.999989" fill-opacity="1"/><rect x="-37.5" width="450" fill="#ffffff" y="-37.499999" height="449.999989" fill-opacity="1"/><path fill="#5d60a6" d="M 187.5 0 C 84.050781 0 0 84.050781 0 187.5 C 0 290.949219 84.050781 375 187.5 375 C 290.949219 375 375 290.949219 375 187.5 C 375 84.050781 290.949219 0 187.5 0 Z M 187.5 8.152344 C 286.65625 8.152344 366.847656 88.34375 366.847656 187.5 C 366.847656 286.65625 286.65625 366.847656 187.5 366.847656 C 88.34375 366.847656 8.152344 286.65625 8.152344 187.5 C 8.152344 88.34375 88.34375 8.152344 187.5 8.152344 Z M 187.5 8.152344 " fill-opacity="1" fill-rule="nonzero"/><path fill="#5d60a6" d="M 247.46875 134.871094 C 252.992188 134.871094 257.472656 130.394531 257.472656 124.867188 C 257.472656 119.34375 252.992188 114.867188 247.46875 114.867188 C 241.945312 114.867188 237.46875 119.34375 237.46875 124.867188 C 237.46875 130.394531 241.945312 134.871094 247.46875 134.871094 Z M 247.46875 134.871094 " fill-opacity="1" fill-rule="nonzero"/><path fill="#5d60a6" d="M 187.492188 243.371094 C 218.304688 243.371094 243.371094 218.304688 243.371094 187.496094 C 243.371094 156.683594 218.304688 131.621094 187.492188 131.621094 C 156.683594 131.621094 131.621094 156.683594 131.621094 187.496094 C 131.621094 218.304688 156.683594 243.371094 187.492188 243.371094 Z M 187.492188 145.878906 C 210.4375 145.878906 229.109375 164.550781 229.109375 187.496094 C 229.109375 210.441406 210.4375 229.109375 187.492188 229.109375 C 164.546875 229.109375 145.882812 210.441406 145.882812 187.496094 C 145.882812 164.550781 164.546875 145.878906 187.492188 145.878906 Z M 187.492188 145.878906 " fill-opacity="1" fill-rule="nonzero"/><g clip-path="url(#cf5c4dd625)"><path fill="#5d60a6" d="M 133.070312 293.816406 L 241.917969 293.816406 C 270.535156 293.816406 293.816406 270.535156 293.816406 241.917969 L 293.816406 133.070312 C 293.816406 104.453125 270.535156 81.171875 241.917969 81.171875 L 133.070312 81.171875 C 104.453125 81.171875 81.171875 104.453125 81.171875 133.070312 L 81.171875 241.917969 C 81.171875 270.535156 104.453125 293.816406 133.070312 293.816406 Z M 95.433594 133.070312 C 95.433594 112.316406 112.316406 95.433594 133.070312 95.433594 L 241.917969 95.433594 C 262.671875 95.433594 279.554688 112.316406 279.554688 133.070312 L 279.554688 241.917969 C 279.554688 262.671875 262.671875 279.554688 241.917969 279.554688 L 133.070312 279.554688 C 112.316406 279.554688 95.433594 262.671875 95.433594 241.917969 Z M 95.433594 133.070312 " fill-opacity="1" fill-rule="nonzero"/></g></svg>